<?xml version="1.0" encoding="iso-8859-1"?>
<!-- Generator: Adobe Illustrator 18.0.0, SVG Export Plug-In . SVG Version: 6.00 Build 0)  -->
<!DOCTYPE svg PUBLIC "-//W3C//DTD SVG 1.1//EN" "http://www.w3.org/Graphics/SVG/1.1/DTD/svg11.dtd">
<svg version="1.1" id="Capa_1" xmlns="http://www.w3.org/2000/svg" xmlns:xlink="http://www.w3.org/1999/xlink" x="0px" y="0px"
	 viewBox="0 0 326.484 326.484" style="enable-background:new 0 0 326.484 326.484;" xml:space="preserve">
<g>
	<path d="M227.457,13.117c-2.54-1.086-5.479,0.089-6.565,2.628c-1.087,2.538,0.09,5.478,2.628,6.565
		c56.474,24.187,92.965,79.506,92.965,140.933c0,84.497-68.744,153.242-153.242,153.242S10,247.74,10,163.242
		C10,78.744,78.744,10,163.242,10c15.358,0,30.517,2.264,45.056,6.729c2.639,0.807,5.437-0.672,6.247-3.312
		c0.811-2.64-0.672-5.437-3.312-6.248C195.743,2.412,179.596,0,163.242,0C73.23,0,0,73.23,0,163.242
		c0,90.012,73.23,163.242,163.242,163.242c90.012,0,163.242-73.23,163.242-163.242C326.484,97.808,287.613,38.881,227.457,13.117z"
		/>
	<path d="M264.059,91.662c1.055,0,2.119-0.333,3.023-1.021c2.198-1.672,2.624-4.809,0.952-7.007c-2.031-2.67-4.194-5.297-6.43-7.811
		c-1.834-2.064-4.995-2.25-7.059-0.414c-2.063,1.835-2.249,4.995-0.414,7.059c2.066,2.324,4.066,4.754,5.943,7.221
		C261.06,90.983,262.55,91.662,264.059,91.662z"/>
	<path d="M163.242,284.836c-25.473,0-49.859-7.79-70.524-22.528c-2.248-1.604-5.37-1.081-6.974,1.167
		c-1.603,2.248-1.081,5.371,1.168,6.974c22.369,15.954,48.763,24.387,76.33,24.387c72.562,0,131.594-59.033,131.594-131.593
		c0-22.876-5.962-45.408-17.241-65.161c-1.369-2.397-4.422-3.232-6.821-1.862c-2.397,1.369-3.231,4.423-1.862,6.821
		c10.418,18.245,15.925,39.062,15.925,60.202C284.836,230.289,230.289,284.836,163.242,284.836z"/>
	<path d="M69.117,248.047c-1.977,1.928-2.016,5.094-0.087,7.071c1.636,1.677,3.336,3.329,5.052,4.911
		c0.961,0.886,2.175,1.323,3.387,1.323c1.348,0,2.693-0.542,3.678-1.612c1.872-2.03,1.742-5.194-0.289-7.065
		c-1.586-1.462-3.158-2.99-4.67-4.54C74.258,246.157,71.094,246.118,69.117,248.047z"/>
	<path d="M163.242,31.649c-72.561,0-131.594,59.033-131.594,131.594c0,27.239,8.25,53.376,23.859,75.585
		c0.974,1.385,2.522,2.126,4.095,2.126c0.993,0,1.997-0.295,2.871-0.91c2.259-1.588,2.804-4.707,1.216-6.966
		c-14.419-20.516-22.041-44.665-22.041-69.835c0-67.047,54.547-121.594,121.594-121.594c29.925,0,58.683,10.968,80.977,30.885
		c2.061,1.84,5.221,1.66,7.06-0.398c1.84-2.059,1.662-5.22-0.398-7.06C226.752,43.52,195.628,31.649,163.242,31.649z"/>
	<path d="M133.407,121.278c8.172-5.368,17.685-8.206,27.509-8.206c20.487,0,38.727,12.258,46.471,31.229
		c0.791,1.938,2.659,3.112,4.631,3.112c0.629,0,1.268-0.12,1.888-0.372c2.557-1.044,3.783-3.962,2.739-6.519
		c-9.285-22.751-31.159-37.451-55.729-37.451c-11.781,0-23.192,3.406-32.999,9.849c-2.308,1.516-2.95,4.616-1.434,6.924
		C127.999,122.152,131.1,122.795,133.407,121.278z"/>
	<path d="M137.35,166.909h-7.934c-2.761,0-5,2.239-5,5s2.239,5,5,5h7.934c2.761,0,5-2.239,5-5S140.111,166.909,137.35,166.909z"/>
	<path d="M89.468,171.909c0,2.761,2.239,5,5,5h7.863c6.208,26.613,30.109,46.503,58.586,46.503
		c23.703,0,45.274-13.985,54.954-35.628c1.127-2.521-0.002-5.479-2.523-6.606c-2.519-1.126-5.477,0.003-6.605,2.523
		c-8.072,18.049-26.06,29.711-45.825,29.711c-22.926,0-42.295-15.463-48.262-36.503h2.271c2.761,0,5-2.239,5-5s-2.239-5-5-5h-4.03
		c-0.088-1.212-0.148-2.432-0.148-3.667c0-1.23,0.051-2.452,0.137-3.667h26.467c2.761,0,5-2.239,5-5s-2.239-5-5-5h-24.725
		c1.692-6.007,4.506-11.663,8.383-16.742c1.675-2.195,1.254-5.333-0.941-7.008c-2.196-1.676-5.333-1.253-7.008,0.941
		c-5.234,6.857-8.853,14.587-10.754,22.81h-7.837c-2.761,0-5,2.239-5,5s2.239,5,5,5h6.399c-0.072,1.217-0.121,2.438-0.121,3.667
		c0,1.232,0.049,2.452,0.122,3.667h-6.4C91.706,166.909,89.468,169.148,89.468,171.909z"/>
</g>
<g>
</g>
<g>
</g>
<g>
</g>
<g>
</g>
<g>
</g>
<g>
</g>
<g>
</g>
<g>
</g>
<g>
</g>
<g>
</g>
<g>
</g>
<g>
</g>
<g>
</g>
<g>
</g>
<g>
</g>
</svg>
